<svg xmlns="http://www.w3.org/2000/svg" aria-hidden="true" style="position:absolute;width:0;height:0;overflow:hidden">
  <defs>
    <symbol id="close" viewBox="0 0 32 32">
      <path stroke-linecap="round" stroke-linejoin="round" stroke-width="1.333" d="M23 23 9 9m14 0L9 23"/>
    </symbol>
    <symbol id="search" viewBox="0 0 32 32">
      <path stroke-linecap="round" stroke-linejoin="round" stroke-width="2.08" d="M14.667 25.333c5.891 0 10.667-4.776 10.667-10.667S20.558 3.999 14.667 3.999 4 8.775 4 14.666s4.776 10.667 10.667 10.667zM28 28l-5.8-5.8"/>
    </symbol>
    <symbol id="icon-star-outline" viewBox="0 0 32 32">
      <path stroke-linejoin="round" stroke-linecap="butt" stroke-miterlimit="4" stroke-width="2.2857" d="M30 13h-10.75l-3.25-10-3.25 10h-10.75l8.75 6-3.375 10 8.625-6.25 8.625 6.25-3.375-10 8.75-6z"></path>
    </symbol>
    <symbol id="icon-star-half" viewBox="0 0 32 32">
      <path stroke-linejoin="round" stroke-linecap="butt" stroke-miterlimit="4" stroke-width="1.7778" d="M30 13h-10.75l-3.25-10-3.25 10h-10.75l8.75 6-3.375 10 8.625-6.25 8.625 6.25-3.375-10 8.75-6z"></path>
      <path d="M16 3v19.75l-8.625 6.25 3.375-10-8.75-6h10.75l3.25-10z"></path>
    </symbol>
    <symbol id="icon-star" viewBox="0 0 32 32">
      <path d="M24.627 30c-0.21 0.001-0.416-0.065-0.587-0.187l-8.038-5.827-8.038 5.827c-0.172 0.125-0.379 0.191-0.591 0.19s-0.419-0.069-0.589-0.195c-0.171-0.126-0.297-0.303-0.361-0.505s-0.061-0.42 0.007-0.621l3.135-9.286-8.125-5.572c-0.176-0.121-0.309-0.294-0.379-0.496s-0.074-0.42-0.011-0.624c0.063-0.204 0.189-0.382 0.361-0.509s0.379-0.196 0.592-0.196h10.024l3.025-9.309c0.065-0.201 0.192-0.376 0.363-0.5s0.377-0.191 0.588-0.191c0.211 0 0.417 0.067 0.588 0.191s0.298 0.299 0.363 0.5l3.025 9.313h10.024c0.214-0 0.422 0.068 0.594 0.195s0.299 0.305 0.362 0.509c0.063 0.204 0.059 0.423-0.011 0.625s-0.203 0.376-0.379 0.496l-8.128 5.569 3.133 9.283c0.051 0.15 0.065 0.311 0.042 0.467s-0.084 0.306-0.176 0.435-0.214 0.234-0.355 0.307c-0.141 0.073-0.297 0.111-0.456 0.111z"></path>
    </symbol>
    <symbol id="orange-heart" viewBox="0 0 34 32">
      <path fill="#f87719" style="fill: var(--color1, #f87719)" d="M17.231 31.705l-2.412-2.412c-8.96-7.926-14.818-13.268-14.818-19.815 0-5.342 4.135-9.477 9.477-9.477 2.929 0 5.858 1.378 7.754 3.618 1.895-2.24 4.825-3.618 7.754-3.618 5.342 0 9.477 4.135 9.477 9.477 0 6.548-5.858 11.889-14.818 19.815l-2.412 2.412z"></path>
    </symbol>
  </defs>
</svg>
