<?xml version="1.0" standalone="no"?>
<!DOCTYPE svg PUBLIC "-//W3C//DTD SVG 20010904//EN"
 "http://www.w3.org/TR/2001/REC-SVG-20010904/DTD/svg10.dtd">
<svg version="1.0" xmlns="http://www.w3.org/2000/svg"
 width="260.000000pt" height="260.000000pt" viewBox="0 0 260.000000 260.000000"
 preserveAspectRatio="xMidYMid meet">
<metadata>
Created by potrace 1.14, written by Peter Selinger 2001-2017
</metadata>
<g transform="translate(0.000000,260.000000) scale(0.100000,-0.100000)"
fill="#000000" stroke="none">
<path d="M2203 2267 c-13 -5 -23 -14 -23 -19 0 -5 -9 -7 -19 -3 -43 13 -62 13
-76 -2 -9 -9 -14 -22 -11 -30 3 -8 -1 -24 -9 -36 -32 -51 -18 -118 22 -102 10
4 29 9 42 11 24 5 102 69 129 107 30 40 -11 95 -55 74z"/>
<path d="M1267 2190 c-23 -18 -28 -18 -52 -6 -49 26 -102 -11 -125 -86 -9 -31
-16 -38 -35 -38 -14 0 -25 -5 -25 -10 0 -7 -6 -7 -19 -1 -46 25 -108 -19 -91
-65 9 -23 3 -29 -23 -25 -13 2 -47 -63 -47 -91 0 -23 -6 -29 -32 -36 -27 -6
-38 -19 -65 -70 -34 -69 -33 -100 7 -154 10 -14 29 -66 41 -114 l21 -88 -33
-27 c-19 -15 -92 -71 -163 -124 -116 -86 -133 -96 -163 -92 -19 3 -36 7 -38 9
-3 2 21 56 51 119 162 329 244 501 244 509 0 4 -35 27 -77 51 -63 34 -89 43
-134 44 l-57 2 -18 -41 c-78 -178 -149 -339 -169 -381 -22 -48 -128 -285 -165
-372 l-19 -42 46 -15 c26 -9 53 -22 62 -30 9 -8 44 -28 77 -45 59 -30 68 -39
215 -242 85 -116 167 -230 183 -254 30 -44 92 -75 119 -58 6 4 72 49 145 100
l133 93 47 -24 c26 -12 79 -31 117 -40 80 -20 267 -29 340 -15 28 4 62 11 78
13 24 5 27 3 27 -22 0 -38 67 -106 135 -138 104 -47 267 -70 349 -49 63 17 88
45 114 130 96 328 183 588 200 603 25 21 56 115 47 142 -17 54 -134 128 -267
170 -21 6 -38 17 -38 24 0 30 42 202 53 214 9 11 30 13 102 7 95 -7 117 0 112
35 -4 21 -17 41 -25 36 -4 -2 -39 2 -79 8 -45 8 -77 9 -88 4 -9 -6 -23 -7 -31
-4 -8 3 -17 -1 -20 -9 -4 -8 -12 -15 -20 -15 -8 0 -14 -6 -14 -14 0 -8 -6 -21
-13 -28 -13 -12 -23 -42 -33 -93 -8 -41 -27 -120 -31 -127 -2 -4 -17 -2 -34 4
-20 7 -28 15 -25 27 3 9 8 43 11 76 12 114 17 139 30 149 21 16 43 77 38 106
-4 27 -60 90 -79 90 -7 0 -16 9 -19 20 -6 18 -17 25 -38 21 -5 -1 -16 8 -26
20 -15 18 -21 20 -39 10 -19 -10 -23 -9 -34 13 -11 26 -35 39 -58 34 -7 -2
-14 6 -16 16 -5 34 -31 50 -81 50 -38 1 -52 6 -69 25 -20 23 -33 26 -121 30
-6 1 -27 15 -45 31 -40 37 -71 46 -104 32 -20 -10 -27 -8 -48 13 -30 30 -65
32 -99 5z"/>
</g>
</svg>
