<?xml version="1.0" standalone="no"?>
<!DOCTYPE svg PUBLIC "-//W3C//DTD SVG 20010904//EN"
 "http://www.w3.org/TR/2001/REC-SVG-20010904/DTD/svg10.dtd">
<svg version="1.0" xmlns="http://www.w3.org/2000/svg"
 width="96.000000pt" height="96.000000pt" viewBox="0 0 96.000000 96.000000"
 preserveAspectRatio="xMidYMid meet">
<metadata>
Created by potrace 1.14, written by Peter Selinger 2001-2017
</metadata>
<g transform="translate(0.000000,96.000000) scale(0.100000,-0.100000)"
fill="#000000" stroke="none">
<path d="M794 833 c-21 -4 -48 -46 -37 -57 21 -20 86 23 76 50 -3 8 -8 13 -12
13 -3 -1 -16 -4 -27 -6z"/>
<path d="M471 811 c-7 -5 -22 -6 -32 -4 -13 4 -22 -3 -30 -21 -8 -17 -20 -26
-36 -26 -13 0 -27 -8 -30 -17 -4 -10 -13 -24 -20 -31 -7 -8 -11 -17 -8 -22 3
-5 -4 -11 -15 -15 -28 -9 -35 -49 -16 -89 26 -55 21 -69 -41 -114 -54 -39 -84
-52 -82 -34 0 4 24 57 53 117 l53 110 -30 18 c-56 35 -65 26 -139 -138 l-67
-150 48 -27 c34 -20 65 -52 111 -117 36 -50 71 -93 79 -96 8 -3 37 11 66 31
l52 36 49 -15 c27 -8 77 -13 111 -11 54 2 64 0 73 -17 15 -27 60 -48 122 -55
78 -8 84 0 138 186 12 41 26 77 30 80 5 3 11 17 15 31 8 32 -20 62 -72 80 -35
11 -37 17 -27 68 6 29 9 31 50 31 34 0 42 3 38 15 -7 16 -69 21 -92 6 -7 -4
-19 -27 -26 -50 -6 -23 -16 -41 -21 -39 -15 5 -15 27 3 80 l16 51 -33 29 c-17
16 -36 26 -41 23 -6 -4 -10 -1 -10 4 0 6 -7 11 -15 11 -9 0 -18 7 -21 15 -4 8
-17 15 -30 15 -13 0 -24 5 -24 10 0 6 -13 10 -29 10 -16 0 -31 4 -33 9 -1 6
-15 12 -30 15 -15 2 -31 7 -36 10 -4 2 -14 1 -21 -3z"/>
</g>
</svg>
